<?xml version="1.0" standalone="no"?>
<!DOCTYPE svg PUBLIC "-//W3C//DTD SVG 20010904//EN"
 "http://www.w3.org/TR/2001/REC-SVG-20010904/DTD/svg10.dtd">
<svg version="1.0" xmlns="http://www.w3.org/2000/svg"
 width="2087.000000pt" height="2087.000000pt" viewBox="0 0 2087.000000 2087.000000"
 preserveAspectRatio="xMidYMid meet">
<metadata>
Created by potrace 1.14, written by Peter Selinger 2001-2017
</metadata>
<g transform="translate(0.000000,2087.000000) scale(0.100000,-0.100000)"
fill="#000000" stroke="none">
<path d="M10346 20838 c-16 -6 -1195 -738 -2620 -1627 -1425 -889 -2604 -1622
-2619 -1629 -15 -6 -56 -12 -90 -12 -100 1 -172 45 -221 135 -21 40 -21 48
-26 740 -6 783 -1 739 -78 806 -78 69 21 64 -1317 64 l-1210 0 -45 -24 c-59
-30 -87 -57 -113 -106 l-22 -40 -5 -1730 -5 -1730 -22 -40 c-11 -22 -34 -52
-50 -67 -15 -14 -419 -266 -898 -558 -488 -299 -889 -550 -912 -573 -78 -75
-74 -5 -71 -1173 l3 -1039 28 -47 c34 -58 81 -95 143 -114 41 -12 1478 -14
10239 -14 9194 0 10196 2 10244 16 62 18 127 73 152 129 18 38 19 96 19 1088
0 1034 0 1048 -20 1091 -12 23 -33 54 -48 68 -36 35 -10227 6368 -10272 6384
-42 16 -124 16 -164 2z m211 -3359 c168 -18 338 -79 471 -166 88 -58 218 -189
279 -280 64 -97 112 -204 144 -329 l24 -89 0 -795 0 -795 -28 -48 c-34 -58
-98 -101 -171 -117 -36 -8 -286 -10 -831 -8 l-780 3 -48 24 c-59 29 -111 88
-126 144 -9 31 -11 253 -9 832 3 783 4 791 26 870 119 426 432 708 837 754
102 12 107 12 212 0z"/>
<path d="M20 7125 l0 -4025 980 0 980 0 0 1348 1 1347 230 153 c194 129 231
150 236 135 4 -10 273 -684 599 -1498 l592 -1480 1086 -3 1085 -2 -29 67 c-16
38 -452 1033 -970 2213 -517 1180 -942 2152 -942 2160 -1 8 443 822 985 1809
543 987 987 1796 987 1798 0 2 -476 2 -1057 1 l-1058 -3 -701 -1307 c-816
-1522 -920 -1732 -1009 -2037 l-34 -116 -1 1733 0 1732 -980 0 -980 0 0 -4025z"/>
<path d="M6350 7125 l0 -4025 921 0 920 0 -4 2048 c-3 1347 -8 2114 -15 2242
-7 107 -16 273 -22 369 -6 95 -9 175 -7 177 2 2 294 -1084 648 -2414 l646
-2417 741 -3 c408 -1 742 -1 742 0 0 2 330 1220 734 2708 672 2479 735 2705
755 2708 12 2 21 -2 21 -10 0 -7 -7 -114 -15 -238 -60 -935 -65 -1175 -65
-3262 l0 -1908 960 0 960 0 0 4025 0 4025 -1328 0 -1327 0 -639 -2395 c-522
-1955 -643 -2395 -656 -2395 -13 0 -132 436 -649 2383 -349 1310 -636 2388
-638 2395 -4 9 -282 12 -1344 12 l-1339 0 0 -4025z"/>
<path d="M15600 7125 l0 -4026 1458 4 c1274 3 1474 6 1591 20 392 48 687 130
976 271 690 338 1103 922 1205 1706 18 140 24 451 11 612 -67 824 -419 1336
-1079 1568 -101 36 -107 39 -110 67 -3 27 1 31 40 42 68 20 197 83 273 134
379 249 636 696 720 1247 22 150 30 447 16 610 -77 865 -524 1380 -1408 1619
-220 60 -445 98 -773 132 -81 9 -535 13 -1517 16 l-1403 4 0 -4026z m2648
2447 c247 -64 408 -220 467 -450 39 -154 37 -413 -5 -577 -11 -44 -39 -118
-61 -165 -77 -156 -229 -279 -404 -325 -93 -24 -230 -34 -467 -35 l-218 0 0
791 0 791 303 -5 c268 -3 311 -6 385 -25z m12 -3076 c369 -87 570 -392 570
-864 0 -470 -167 -767 -485 -861 -110 -32 -219 -41 -512 -41 l-273 0 0 896 0
896 313 -4 c254 -3 326 -7 387 -22z"/>
<path d="M219 2353 c-51 -8 -132 -66 -164 -117 l-30 -49 -3 -976 c-2 -716 0
-987 9 -1018 16 -57 72 -121 133 -149 l51 -24 10216 0 c8936 0 10222 2 10258
15 64 22 108 62 138 123 l28 57 0 970 c0 912 -1 973 -18 1017 -20 52 -79 111
-136 136 -33 16 -774 17 -10246 18 -5615 1 -10222 -1 -10236 -3z"/>
</g>
</svg>
