<?xml version="1.0" standalone="no"?>
<!DOCTYPE svg PUBLIC "-//W3C//DTD SVG 20010904//EN"
 "http://www.w3.org/TR/2001/REC-SVG-20010904/DTD/svg10.dtd">
<svg version="1.0" xmlns="http://www.w3.org/2000/svg"
 width="1500.000000pt" height="1500.000000pt" viewBox="0 0 1500.000000 1500.000000"
 preserveAspectRatio="xMidYMid meet">
<metadata>
Created by potrace 1.14, written by Peter Selinger 2001-2017
</metadata>
<g transform="translate(0.000000,1500.000000) scale(0.100000,-0.100000)"
fill="#000000" stroke="none">
<path d="M6368 14969 c-263 -52 -504 -142 -738 -277 -98 -56 -280 -177 -315
-209 -11 -10 -45 -37 -77 -61 -31 -24 -96 -80 -144 -125 -78 -72 -85 -77 -64
-42 91 153 285 368 519 578 29 26 49 47 45 47 -25 0 -262 -130 -343 -188 -116
-82 -267 -231 -343 -337 -140 -198 -319 -551 -483 -955 -26 -63 -48 -117 -50
-119 -8 -7 38 267 51 311 3 9 7 25 9 35 16 74 99 317 160 466 4 9 5 17 2 17
-7 0 -126 -160 -162 -219 -5 -9 -17 -27 -26 -41 -26 -39 -135 -258 -159 -320
-23 -56 -106 -289 -108 -303 -1 -4 -7 -28 -13 -53 l-12 -46 -52 54 c-229 234
-489 413 -760 523 l-40 16 25 -23 c14 -13 59 -50 100 -83 101 -82 273 -253
348 -348 78 -98 132 -177 106 -156 -177 149 -545 428 -686 520 -156 102 -367
196 -518 230 -71 17 -83 19 -125 24 -22 3 -62 9 -90 13 -50 8 -302 6 -340 -2
-11 -2 -31 -5 -44 -5 -43 -2 -16 -11 90 -32 57 -11 131 -27 164 -35 33 -9 69
-18 81 -20 109 -20 343 -106 450 -165 67 -36 123 -81 84 -67 -43 15 -205 59
-275 73 -116 24 -116 24 -165 31 -25 3 -47 7 -50 9 -13 8 -219 19 -340 19
-211 0 -335 -13 -545 -59 -109 -24 -399 -114 -391 -122 2 -2 16 -6 32 -9 16
-2 49 -9 74 -14 25 -5 59 -12 75 -15 214 -36 535 -126 755 -212 224 -88 493
-228 700 -366 113 -75 263 -188 257 -193 -2 -2 -132 48 -289 110 -277 111
-430 164 -590 204 -80 20 -91 19 -60 -4 91 -71 354 -256 512 -359 107 -71 287
-189 400 -263 249 -164 526 -361 586 -417 6 -6 34 -28 62 -50 29 -21 52 -42
52 -46 0 -4 -51 16 -112 45 -276 130 -540 218 -788 262 -25 4 -47 8 -50 9 -3
1 -36 5 -75 9 -38 4 -81 10 -95 12 -62 11 -394 4 -480 -11 -14 -2 -56 -9 -95
-15 -265 -41 -614 -183 -892 -364 -40 -26 -73 -49 -73 -50 0 -2 39 9 88 24 97
32 231 68 277 75 17 3 50 10 75 15 56 12 98 18 175 25 33 4 67 9 75 11 8 3
106 8 217 11 163 5 203 3 203 -7 0 -7 -3 -11 -6 -8 -3 4 -20 2 -37 -3 -29 -9
-97 -25 -267 -64 -142 -33 -393 -113 -565 -182 -341 -136 -531 -246 -715 -415
-140 -128 -410 -563 -435 -699 l-4 -24 20 25 c12 13 40 47 64 75 24 27 76 88
116 135 177 208 286 308 476 436 92 63 205 124 229 124 6 0 -29 -39 -77 -87
-427 -428 -813 -1124 -930 -1678 -25 -118 -33 -343 -16 -419 l12 -50 28 42
c15 23 27 46 27 51 0 5 3 11 8 13 4 2 25 30 47 63 21 33 41 62 45 65 3 3 13
16 22 31 16 25 197 260 208 269 3 3 34 39 70 80 96 112 346 357 466 457 286
238 578 426 834 537 95 41 230 86 230 76 0 -4 -6 -10 -13 -13 -13 -5 -245
-178 -291 -217 -104 -89 -392 -372 -508 -499 -65 -72 -164 -211 -149 -211 9 0
148 70 246 125 22 12 92 50 155 85 63 34 135 74 160 88 25 13 79 43 120 65 41
22 80 43 85 48 18 13 538 274 590 296 28 11 77 32 110 46 59 24 146 56 318
116 l88 31 -18 -24 c-10 -13 -56 -50 -103 -82 -345 -234 -577 -460 -775 -759
-130 -194 -246 -457 -280 -633 -1 -9 -8 -35 -13 -57 -18 -70 -48 -286 -58
-415 -5 -75 -5 -606 1 -750 7 -182 17 -244 50 -307 14 -26 15 -21 15 87 1 150
11 327 25 420 2 14 7 45 10 70 3 25 10 68 15 95 5 28 12 66 15 85 5 29 35 168
50 230 22 92 123 411 132 420 3 3 3 -8 -1 -25 -3 -16 -8 -48 -12 -70 -3 -22
-7 -51 -9 -65 -2 -14 -7 -47 -10 -75 -4 -27 -8 -57 -10 -65 -2 -8 -7 -46 -11
-85 -3 -38 -8 -79 -10 -90 -2 -11 -7 -51 -10 -90 -3 -38 -7 -86 -10 -105 -26
-238 -26 -812 1 -975 3 -16 8 -46 11 -65 56 -351 226 -668 503 -938 46 -44 78
-66 110 -76 25 -7 48 -12 50 -10 2 1 -18 29 -44 61 -141 172 -282 430 -349
638 -41 127 -70 253 -82 360 -3 28 -8 57 -10 65 -3 9 -2 11 4 5 5 -5 21 -46
36 -90 33 -95 129 -296 185 -389 46 -74 130 -193 175 -246 71 -83 238 -242
324 -308 290 -222 803 -481 955 -482 l29 0 -34 27 c-103 86 -272 251 -359 353
-299 349 -499 781 -565 1220 -3 19 -7 46 -9 60 -26 151 -24 532 2 690 8 48 10
70 12 103 1 26 17 40 18 15 1 -20 13 -134 17 -155 2 -10 7 -40 10 -68 8 -60
16 -110 22 -139 2 -11 11 -59 20 -106 41 -222 140 -528 217 -675 10 -19 10
-19 18 3 9 25 5 172 -7 262 -14 97 -7 547 11 690 2 19 7 69 10 110 7 71 9 93
19 173 2 17 7 59 11 92 4 33 9 69 11 80 2 10 6 37 9 60 3 22 8 51 10 65 3 14
7 41 10 60 15 90 57 275 81 351 14 46 27 89 28 96 1 7 5 16 9 19 4 4 7 14 7
21 0 22 81 225 134 336 125 261 301 510 507 717 151 152 266 249 397 333 34
22 47 26 57 17 16 -14 9 -40 -12 -40 -22 0 -63 -46 -58 -67 3 -18 17 -68 54
-203 11 -41 23 -88 25 -105 11 -63 19 -89 43 -144 42 -94 41 -158 -2 -209
l-23 -28 39 -149 c40 -158 83 -301 119 -400 36 -99 36 -108 -1 -125 -56 -26
-57 -33 -7 -206 26 -88 58 -202 73 -254 15 -52 35 -120 46 -151 10 -31 19 -60
19 -66 0 -5 -20 -23 -45 -41 -25 -17 -45 -38 -45 -47 0 -8 22 -31 50 -52 47
-35 55 -53 25 -53 -8 0 -20 -9 -28 -21 -17 -23 -14 -39 31 -179 35 -109 42
-137 49 -200 3 -25 16 -72 30 -104 32 -76 26 -116 -21 -146 -19 -11 -36 -26
-39 -33 -5 -14 38 -189 101 -407 23 -81 36 -143 32 -155 -4 -11 -22 -28 -40
-37 -60 -31 -64 -3 55 -418 63 -221 63 -233 -3 -244 -27 -4 -43 -12 -47 -25
-3 -10 30 -137 75 -285 44 -146 80 -273 80 -281 0 -17 -9 -22 -54 -29 -16 -3
-36 -12 -43 -19 -17 -16 -17 -13 71 -342 25 -93 53 -198 62 -232 19 -67 12
-93 -27 -93 -11 0 -28 -9 -38 -19 -22 -22 -25 -10 67 -346 33 -121 59 -228 59
-238 0 -23 -32 -36 -75 -32 -47 4 -64 -17 -57 -72 3 -25 7 -49 10 -52 2 -4 6
-19 9 -34 2 -14 17 -66 32 -114 15 -48 28 -92 30 -98 1 -5 11 -41 23 -80 26
-88 40 -161 32 -173 -3 -6 -21 -12 -40 -15 -63 -10 -63 -15 -7 -197 15 -47 29
-94 31 -105 3 -11 11 -40 20 -65 34 -105 66 -208 70 -228 5 -28 -12 -40 -64
-45 -37 -4 -60 -18 -61 -38 0 -3 28 -113 61 -245 84 -329 79 -302 62 -319 -8
-8 -29 -16 -46 -16 -18 -1 -39 -3 -47 -4 -8 -1 -23 -3 -32 -4 -32 -2 -48 -30
-43 -71 5 -40 54 -222 106 -391 54 -180 50 -194 -51 -190 -84 3 -91 -14 -55
-135 15 -49 42 -143 61 -209 19 -66 46 -155 59 -198 40 -126 34 -141 -54 -143
-34 -1 -68 -7 -76 -14 -20 -17 -19 -64 4 -136 10 -32 26 -84 34 -114 9 -30 34
-117 56 -193 23 -75 41 -148 41 -162 0 -31 -29 -47 -83 -45 -60 3 -64 2 -81
-16 -21 -20 -20 -26 63 -281 39 -120 77 -243 86 -273 8 -30 24 -70 35 -88 l20
-32 608 0 609 0 20 23 c11 12 30 41 42 65 27 53 202 576 204 610 3 33 -26 42
-85 27 -64 -16 -146 -13 -159 5 -13 20 -6 62 41 255 44 183 68 283 75 323 3
15 7 37 9 48 2 12 -2 32 -11 44 -14 20 -21 21 -72 15 -91 -10 -90 -16 -21 271
33 137 64 264 69 282 11 38 6 91 -9 106 -6 6 -32 11 -58 12 -26 1 -51 2 -55 3
-22 3 -23 52 0 156 45 209 54 260 59 350 7 113 -1 128 -75 131 -74 2 -84 15
-77 89 3 33 8 74 11 90 3 17 7 41 10 55 3 14 7 47 11 73 3 27 12 85 19 130 17
108 15 175 -8 192 -10 7 -36 11 -61 9 -67 -5 -72 7 -57 126 6 54 13 106 15
117 4 20 13 77 21 138 3 22 12 75 20 119 29 152 18 186 -61 186 -86 0 -96 20
-74 155 5 33 12 85 15 115 5 56 14 128 20 166 16 108 17 155 1 179 -15 22 -24
25 -76 25 -61 0 -81 13 -75 51 2 8 6 41 9 71 4 31 9 65 11 77 2 12 7 56 10 99
21 263 11 299 -86 293 -24 -1 -41 5 -53 18 -18 20 -18 36 -1 133 3 14 7 105
10 204 2 98 9 197 14 219 25 97 3 138 -72 137 -35 -1 -49 3 -55 16 -5 9 -7
149 -5 309 3 207 0 299 -8 314 -9 19 -17 21 -55 15 -73 -10 -72 -13 -73 291 0
347 0 346 -10 362 -5 8 -28 15 -51 16 -73 3 -71 -4 -74 335 -3 282 -4 304 -21
316 -10 8 -28 14 -39 14 -44 0 -51 14 -48 97 1 43 4 89 7 103 3 14 8 76 10
139 7 158 -18 249 -90 331 -18 20 -24 43 -30 110 -11 132 -12 142 -18 190 -3
25 -9 77 -12 115 -9 103 -10 104 -53 98 -53 -7 -62 8 -67 118 -9 183 -17 304
-22 311 -2 4 -4 35 -4 69 -1 92 -10 109 -58 109 -22 0 -43 5 -47 11 -4 7 -8
45 -10 87 -2 41 -15 121 -29 178 -16 66 -27 137 -28 196 -3 104 -17 137 -67
158 -32 13 -32 13 -35 50 -2 25 -10 80 -20 135 -3 17 -8 46 -11 65 -3 19 -14
73 -25 120 -19 78 -19 85 -4 96 21 15 32 11 115 -39 36 -22 74 -45 85 -51 11
-6 31 -18 45 -27 14 -9 79 -48 145 -87 333 -195 634 -462 871 -772 217 -282
482 -727 737 -1235 58 -115 131 -252 162 -303 30 -51 64 -107 74 -125 41 -70
182 -302 187 -307 3 -3 3 12 0 33 -3 20 -8 54 -11 75 -3 20 -9 51 -12 67 -4
17 -7 37 -8 45 -12 88 -77 371 -127 545 -47 168 -123 388 -197 573 -11 28 -19
52 -17 52 15 0 265 -347 325 -450 206 -355 337 -684 425 -1066 14 -61 28 -128
31 -150 4 -21 9 -47 11 -57 3 -10 8 -35 10 -55 2 -20 9 -61 14 -90 5 -29 9
-56 8 -60 -2 -7 12 -133 18 -164 4 -23 17 -262 17 -316 0 -23 4 -39 8 -35 21
22 139 276 193 418 102 261 202 651 242 930 3 28 8 57 9 65 2 9 6 43 10 75 4
33 8 71 11 85 2 14 6 56 9 95 3 38 8 84 10 100 2 17 7 71 10 120 3 50 8 115
10 145 2 30 4 73 4 94 1 22 3 37 5 35 4 -4 14 -60 22 -119 2 -19 8 -55 14 -80
8 -38 23 -124 45 -255 11 -67 15 -91 20 -115 3 -13 7 -42 10 -65 3 -22 8 -47
10 -55 2 -8 7 -44 10 -80 4 -36 9 -73 10 -82 13 -63 20 -226 20 -429 0 -162 3
-235 11 -232 47 18 149 345 171 548 9 87 9 369 0 450 -7 57 -16 123 -22 155
-28 153 -40 208 -57 275 -11 44 -21 88 -23 97 -9 46 -82 265 -121 365 -99 254
-211 466 -363 688 -53 77 -179 245 -191 255 -3 3 -37 43 -75 90 -38 47 -74 88
-80 92 -5 4 -6 8 -1 8 17 0 189 -153 315 -280 126 -127 303 -351 380 -481 50
-84 133 -241 166 -314 20 -44 41 -91 48 -104 15 -32 76 -91 93 -91 16 0 14 5
-61 215 -115 324 -240 588 -390 826 -39 62 -144 207 -170 235 -5 6 -23 29 -40
50 -102 131 -355 348 -540 465 -229 144 -559 274 -795 314 -19 3 -42 8 -50 10
-8 2 -39 7 -69 10 -30 4 -62 8 -72 10 -83 16 -495 24 -608 12 -29 -3 -50 -2
-45 3 11 9 101 39 138 45 14 3 38 7 54 10 91 16 211 37 232 40 14 2 39 6 55 8
17 3 55 9 85 12 30 4 62 9 71 10 15 3 118 12 224 21 82 6 364 4 470 -3 132 -9
500 -8 755 1 102 4 246 9 320 11 74 2 140 4 146 5 7 0 22 8 34 18 22 18 22 18
-76 59 -178 75 -388 147 -584 200 -30 8 -62 16 -70 19 -8 2 -114 29 -235 59
-121 30 -240 61 -265 69 l-45 14 40 2 c22 1 56 4 75 6 82 7 280 17 345 17 71
0 312 -12 375 -19 19 -2 60 -6 90 -9 30 -3 78 -10 105 -15 28 -5 64 -11 80
-14 48 -7 187 -35 225 -46 361 -100 567 -178 830 -313 118 -61 346 -195 389
-228 45 -35 40 -19 -21 79 -318 505 -590 819 -958 1102 -17 14 -37 30 -44 35
-25 24 -286 194 -350 229 -182 100 -290 149 -476 217 l-105 38 70 -5 c39 -3
81 -7 94 -9 13 -3 45 -7 70 -10 304 -41 673 -181 951 -359 36 -23 72 -46 80
-50 17 -10 -53 66 -155 169 -244 244 -538 409 -860 482 -21 4 -107 17 -190 28
-54 7 -365 7 -430 0 -22 -2 -80 -7 -130 -10 -49 -4 -97 -8 -105 -10 -8 -3 -40
-7 -70 -10 -102 -11 -345 -55 -405 -74 -85 -28 -202 -53 -222 -49 -27 5 323
178 467 230 113 41 289 91 366 104 16 2 38 6 49 8 18 4 102 15 165 21 14 2 43
3 64 4 73 2 27 17 -134 46 -141 24 -216 30 -405 30 -217 0 -283 -7 -455 -46
-172 -39 -256 -70 -445 -164 -293 -145 -562 -365 -818 -665 -49 -58 -94 -109
-99 -115 -14 -15 126 270 192 390 15 28 63 118 108 200 44 83 99 184 122 225
60 111 244 484 279 569 36 86 36 86 -89 -39 -130 -131 -247 -260 -355 -391
-35 -43 -119 -143 -143 -170 -12 -14 -29 -34 -37 -45 -8 -10 -15 -15 -15 -11
0 9 143 297 177 357 159 277 313 495 497 705 145 164 307 319 499 477 126 102
129 100 -85 57z"/>
<path d="M11863 11308 c113 -177 255 -479 327 -698 21 -64 75 -266 86 -325 4
-22 8 -42 9 -45 2 -9 26 -175 29 -208 2 -18 0 -35 -4 -37 -7 -4 -12 10 -26 70
-4 17 -65 188 -79 220 -37 87 -51 118 -92 200 -53 106 -72 131 -68 88 2 -15 6
-59 10 -98 3 -38 8 -81 10 -95 1 -14 6 -49 10 -79 4 -30 8 -63 11 -74 2 -11 8
-57 14 -101 6 -45 13 -92 15 -106 11 -77 15 -110 20 -152 3 -26 9 -78 14 -115
6 -38 13 -95 17 -128 3 -33 7 -67 9 -75 1 -8 5 -44 9 -80 5 -55 4 -60 -5 -35
-202 542 -439 868 -761 1043 -123 67 -310 117 -469 127 l-84 5 55 -23 c92 -37
280 -141 300 -166 3 -3 21 -18 40 -32 49 -37 230 -223 230 -236 0 -3 -15 4
-32 15 -220 134 -420 233 -582 287 -116 39 -134 43 -276 64 -127 20 -311 -7
-452 -64 -56 -23 -248 -132 -248 -141 0 -3 19 -2 43 1 23 3 85 12 137 20 258
38 418 41 525 10 111 -32 111 -41 -2 -42 -252 -1 -459 -48 -696 -157 -238
-111 -592 -407 -671 -563 l-16 -32 78 29 c83 30 245 75 302 84 19 3 58 9 85
13 66 10 364 10 440 0 153 -21 402 -90 528 -146 26 -11 67 -30 92 -41 25 -11
45 -21 45 -23 0 -2 -30 0 -67 4 -248 28 -629 29 -698 2 -21 -7 5 -24 210 -129
205 -105 313 -147 483 -189 224 -56 560 -180 682 -251 49 -30 120 -88 120 -99
0 -3 -24 6 -53 19 -56 25 -225 71 -292 80 -135 19 -316 23 -435 12 -78 -8
-220 -41 -264 -60 -17 -8 -49 -22 -70 -31 -122 -49 -318 -215 -454 -384 -158
-196 -333 -487 -409 -677 -34 -88 -94 -300 -107 -384 -13 -84 -34 -300 -29
-300 12 0 95 209 106 266 2 11 6 26 9 34 3 8 17 54 32 101 32 103 92 230 177
370 59 98 137 204 145 196 2 -2 -14 -39 -37 -83 -110 -215 -225 -574 -253
-791 -20 -149 -23 -177 -33 -298 -10 -122 -11 -516 -1 -605 8 -75 35 -206 46
-226 5 -10 13 9 22 53 7 37 16 77 21 88 4 11 24 74 44 140 112 362 302 683
554 936 93 92 271 240 271 225 0 -5 -58 -100 -132 -214 -65 -100 -142 -235
-180 -312 -48 -98 -88 -200 -80 -200 9 0 79 58 141 115 24 22 55 51 70 64 127
114 303 284 505 487 314 315 439 411 697 538 144 72 446 176 527 182 60 5 60
11 -2 -81 -23 -33 -50 -77 -61 -99 -11 -21 -56 -72 -101 -113 -45 -41 -88 -87
-96 -101 -7 -15 -34 -63 -58 -107 -25 -44 -56 -101 -70 -128 -17 -32 -41 -58
-75 -80 -43 -28 -52 -40 -76 -102 -14 -38 -50 -119 -80 -179 -52 -104 -56
-109 -89 -113 -19 -2 -38 -7 -43 -12 -5 -5 -41 -96 -82 -202 l-73 -194 -38 -2
c-20 0 -40 -7 -45 -14 -4 -7 -22 -58 -39 -113 -17 -56 -46 -144 -64 -196 -31
-90 -35 -95 -62 -96 -16 -1 -34 -2 -41 -3 -15 -1 -43 -79 -89 -251 -49 -182
-56 -194 -104 -180 -24 7 -32 5 -39 -8 -8 -16 -26 -91 -37 -152 -2 -14 -7 -36
-11 -50 -3 -14 -7 -27 -8 -30 -3 -15 -15 -80 -21 -114 -12 -82 -38 -111 -89
-102 -35 7 -52 -23 -60 -109 -6 -71 -12 -115 -20 -170 -2 -16 -7 -52 -11 -80
-6 -49 -28 -104 -42 -106 -4 -1 -24 -2 -44 -3 -20 0 -42 -6 -48 -12 -6 -6 -11
-68 -12 -158 -2 -219 -10 -245 -74 -253 -21 -3 -43 -9 -48 -13 -5 -5 -9 -103
-10 -218 -1 -220 -7 -249 -47 -237 -78 25 -90 6 -76 -115 11 -96 19 -370 10
-371 -4 -1 -25 -3 -47 -4 -21 -2 -43 -8 -49 -14 -14 -14 -16 -68 -6 -133 5
-29 10 -96 11 -149 3 -110 -4 -126 -59 -131 -43 -4 -56 -25 -16 -26 51 0 59
-2 79 -18 16 -13 17 -15 1 -10 -25 8 -64 -9 -77 -34 -11 -21 -10 -36 16 -230
2 -19 7 -46 10 -60 3 -14 8 -36 10 -50 3 -14 7 -37 10 -51 6 -32 -17 -54 -55
-51 -15 1 -36 -4 -46 -12 -19 -14 -19 -16 4 -157 14 -79 25 -172 25 -208 l1
-66 -50 0 c-44 0 -51 -3 -62 -27 -10 -19 -10 -34 -3 -52 10 -27 16 -54 26
-116 3 -19 10 -53 16 -75 28 -103 20 -115 -72 -115 -82 0 -100 -6 -100 -33 0
-19 20 -112 75 -341 13 -54 21 -105 18 -113 -5 -12 -18 -14 -68 -8 -113 12
-114 -5 -22 -271 49 -141 67 -181 89 -197 26 -20 41 -20 510 -19 266 1 490 3
498 5 103 21 121 52 225 384 2 7 -4 21 -13 33 -16 18 -50 28 -109 29 -15 1
-23 7 -23 18 0 16 96 283 126 350 35 77 8 110 -74 92 -57 -14 -82 -8 -82 18 0
10 20 80 45 156 25 76 47 149 49 162 7 38 -18 56 -76 54 -51 -2 -69 9 -63 40
2 9 26 79 53 156 75 207 78 223 53 246 -32 30 -35 62 -13 113 17 36 66 184 78
231 1 6 14 43 29 84 14 40 25 85 23 100 -3 25 -5 26 -56 23 -64 -4 -73 10 -50
77 52 150 97 303 92 315 -3 8 -21 17 -40 20 -23 5 -34 12 -34 24 0 9 25 85 56
167 84 226 83 210 27 239 l-33 16 19 48 c10 26 42 106 71 177 29 72 54 135 57
142 3 6 -9 19 -25 27 -41 21 -48 49 -23 85 12 16 21 33 21 38 0 10 41 116 66
170 20 44 18 60 -11 79 -39 25 -40 49 -6 104 17 28 29 50 26 50 -3 0 22 54 55
120 33 66 60 129 60 140 0 14 -10 24 -30 31 -16 6 -30 13 -30 14 0 5 156 340
180 386 19 38 16 51 -13 62 -9 4 -20 13 -23 21 -3 9 40 108 96 221 l103 206
-22 22 c-27 30 -27 54 4 99 14 20 25 39 25 42 0 3 32 58 71 123 39 65 71 127
72 138 0 11 -6 34 -14 52 -15 37 -5 66 56 158 18 28 35 60 39 71 4 12 17 33
29 46 51 57 58 66 62 88 2 13 -3 38 -11 56 -19 39 -19 38 75 188 70 108 103
178 133 276 23 74 38 101 122 220 34 47 70 105 80 130 53 125 69 152 136 233
40 48 79 87 87 87 36 0 230 -352 292 -530 111 -320 153 -745 106 -1095 -2 -16
-7 -52 -10 -78 -10 -86 -45 -246 -96 -447 -49 -194 -82 -339 -93 -415 -4 -23
-8 -52 -11 -65 -9 -47 -17 -145 -12 -140 6 6 158 298 290 557 39 79 73 139 75
134 4 -13 -43 -215 -78 -336 -108 -370 -302 -686 -538 -877 -100 -80 -164
-120 -292 -185 l-105 -53 45 -1 c236 -8 322 2 510 62 113 36 106 33 250 103
194 95 364 231 502 405 175 219 235 355 274 626 3 22 7 51 10 65 4 23 32 214
39 270 3 22 13 121 20 188 1 12 5 25 8 29 4 3 5 -99 2 -228 -4 -218 -7 -285
-20 -414 -2 -27 -7 -77 -10 -110 l-5 -60 15 34 c34 75 110 351 130 471 13 79
23 153 30 235 6 67 7 321 1 365 -2 19 -7 64 -11 100 -4 36 -10 81 -15 100 -5
19 -12 55 -15 79 -7 45 -68 258 -85 296 -5 11 -12 31 -15 45 -13 47 -153 325
-208 413 -31 48 -54 87 -52 87 7 0 173 -135 244 -199 41 -36 129 -118 195
-182 200 -193 219 -211 317 -301 106 -98 260 -228 271 -228 25 0 -134 281
-300 531 -71 107 -128 196 -126 198 6 7 175 -142 274 -243 298 -303 520 -678
665 -1124 9 -29 18 -52 20 -50 1 2 6 32 9 68 3 36 9 92 12 125 13 136 7 446
-11 557 -2 13 -6 46 -10 73 -3 28 -13 79 -21 115 -9 36 -18 76 -20 89 -20 99
-132 394 -197 516 -21 41 21 -5 87 -94 109 -146 177 -271 248 -456 l39 -100
-5 90 c-10 162 -43 282 -121 441 -127 256 -346 478 -720 729 -71 48 -132 89
-135 91 -2 3 36 -9 85 -26 125 -43 312 -136 428 -213 53 -35 97 -63 97 -61 0
26 -137 192 -225 272 -150 137 -418 271 -621 312 -27 5 -58 11 -70 14 -110 23
-343 24 -479 1 -91 -16 -91 -15 -35 13 124 61 221 101 533 218 265 100 488
194 482 204 -5 8 -340 6 -370 -3 -11 -3 -51 -8 -90 -11 -38 -3 -94 -10 -123
-15 -72 -11 -56 -1 68 44 58 20 134 48 170 61 73 26 289 79 365 90 28 3 59 9
70 11 50 12 355 10 435 -2 116 -18 152 -25 162 -31 4 -3 8 -1 8 5 0 15 -108
107 -185 158 -126 84 -343 179 -495 218 -6 1 -63 13 -100 20 -44 9 -134 18
-177 18 -60 0 -54 14 10 22 28 4 61 9 72 11 30 6 275 5 336 -1 53 -6 54 -6 26
10 -36 21 -171 65 -217 71 -68 10 -246 12 -295 4 -84 -14 -99 -17 -181 -40
-98 -28 -228 -78 -361 -141 -57 -26 -103 -46 -103 -44 0 8 117 93 180 131 36
21 112 63 170 91 l105 53 -50 -5 c-97 -11 -168 -27 -253 -57 -81 -28 -288
-126 -357 -169 l-31 -18 0 137 c0 120 -10 277 -19 292 -2 3 -6 26 -10 50 -6
39 -40 177 -77 308 -18 62 -29 51 -22 -20 8 -87 10 -423 3 -478 -5 -35 -6 -38
-8 -15 -2 17 -4 37 -5 45 -3 13 -9 58 -22 170 -2 19 -6 51 -9 70 -2 19 -7 62
-10 95 -4 33 -9 74 -12 90 -2 17 -6 41 -8 55 -3 22 -10 52 -44 200 -36 157
-170 400 -277 504 -70 68 -94 89 -99 84 -3 -2 15 -36 41 -74 61 -93 156 -289
192 -399 50 -152 48 -168 -6 -60 -58 113 -159 269 -237 365 -136 166 -340 335
-513 424 l-33 17 34 -53z m1014 -1590 c-3 -8 -6 -5 -6 6 -1 11 2 17 5 13 3 -3
4 -12 1 -19z"/>
</g>
</svg>
