<?xml version="1.0" encoding="UTF-8"?><svg id="a" xmlns="http://www.w3.org/2000/svg" viewBox="0 0 500 500"><path id="b" d="M500,250c-5.61,333.36-494.44,333.31-500-.01,5.61-333.35,494.44-333.3,500,.01Z" style="fill:#fff; stroke-width:0px;"/><g id="c"><g id="d"><path id="e" d="M175.62,365h-33.19l-18.36-46.97-7.07,4.83v42.14h-30v-126h30v54.73c.52-2.53,1.36-5.11,2.54-7.76,1.18-2.64,2.51-5.43,4.01-8.36l20.26-38.61h32.33l-30.34,56.45,29.83,69.55Z" style="fill:#0ea5e9; stroke-width:0px;"/><path id="f" d="M234.37,365l-22.63-85h1.84c.3,3.8.55,7.48.76,11.03.21,3.55.37,6.9.49,10.07.12,3.17.18,6.17.18,8.99v54.91h-29v-126h41.92l19.95,75h.53l20.04-75h41.57v126h-30v-55.43c0-3.17.06-6.33.18-9.47.12-3.14.27-6.38.45-9.73.18-3.34.39-6.8.63-10.38h-.72l-22.99,85h-23.17Z" style="fill:#0ea5e9; stroke-width:0px;"/><path id="g" d="M332,239h37.05c14.39,0,25.08,2.53,32.07,7.58,6.99,5.06,10.49,12.99,10.49,23.79,0,4.65-.7,8.89-2.1,12.71-1.4,3.82-3.33,7.02-5.81,9.61-2.48,2.59-5.37,4.39-8.69,5.43v.86c4.43,1.32,8.01,3.29,10.75,5.9,2.74,2.62,4.76,5.86,6.07,9.74,1.31,3.88,1.97,8.37,1.97,13.49,0,7.58-1.66,14.13-4.98,19.65-3.32,5.52-8.05,9.77-14.2,12.76-6.15,2.99-13.47,4.48-21.98,4.48h-40.63v-126ZM362,288h6.75c3.85,0,6.81-1.1,8.88-3.31,2.07-2.21,3.11-5.49,3.11-9.84,0-3.95-1.04-6.91-3.11-8.88-2.07-1.97-5.21-2.96-9.42-2.96h-6.22v25ZM362,312v28h7.74c4.07,0,7.11-1.17,9.12-3.5,2.01-2.33,3.01-5.89,3.01-10.67,0-2.92-.47-5.41-1.42-7.46-.95-2.05-2.35-3.63-4.21-4.72-1.86-1.1-4.14-1.64-6.84-1.64h-7.4Z" style="fill:#0ea5e9; stroke-width:0px;"/></g><path id="h" d="M409.12,414H89.88c-2.14,0-3.88-1.7-3.88-3.81v-29.39c0-2.1,1.74-3.81,3.88-3.81h319.25c2.14,0,3.88,1.7,3.88,3.81v29.39c0,2.1-1.74,3.81-3.88,3.81Z" style="fill:#075985; stroke-width:0px;"/><path id="i" d="M247.91,86.48l-80.94,50.46c-2.59,1.61-5.97-.21-5.97-3.21v-19.93c0-2.1-1.74-3.8-3.88-3.8h-36.3c-2.11,0-3.82,1.7-3.82,3.8v52.28c0,1.3-.67,2.52-1.78,3.21l-26.44,16.63c-1.11.7-1.78,1.91-1.78,3.21v31.05c0,2.1,1.71,3.8,3.82,3.8h319.3c2.15,0,3.88-1.7,3.88-3.8v-31.06c0-1.3-.68-2.51-1.8-3.21l-160.13-99.46c-1.27-.79-2.89-.79-4.16,0Z" style="fill:#075985; stroke-width:0px;"/><path id="j" d="M235,154.87c0-9.2,6.69-16.13,15.1-16.13,8.72,0,15.9,6.93,15.9,16.13v21.33c0,2.1-1.72,3.8-3.84,3.8h-23.31c-2.12,0-3.84-1.7-3.84-3.8v-21.33Z" style="fill:#fff; stroke-width:0px;"/></g></svg>